<?xml version="1.0" encoding="utf-8"?>
<!-- Generated by IcoMoon.io -->
<svg version="1.1" xmlns="http://www.w3.org/2000/svg" xmlns:xlink="http://www.w3.org/1999/xlink" width="400" height="36" viewBox="0 0 400 36">
<svg id="icon-send" width="10" height="10" viewBox="0 0 10 10" x="0" y="0">
<path d="M0 0l10 5-10 5v-10zM0 4v2l5-1-5-1z"></path>
</svg>
<svg id="icon-star-empty" width="10" height="10" viewBox="0 0 10 10" x="0" y="26">
<path fill="green" d="M10 3.877l-3.455-0.502-1.545-3.131-1.545 3.131-3.455 0.502 2.5 2.437-0.59 3.441 3.090-1.625 3.090 1.625-0.59-3.441 2.5-2.437zM5 7.358l-2.182 1.147 0.417-2.43-1.765-1.721 2.44-0.355 1.091-2.211 1.091 2.211 2.44 0.355-1.766 1.721 0.417 2.43-2.182-1.147z"></path>
</svg>
<svg id="icon-star-full" width="10" height="10" viewBox="0 0 10 10" x="26" y="26">
<path fill="green" d="M10 3.877l-3.455-0.502-1.545-3.131-1.545 3.131-3.455 0.502 2.5 2.437-0.59 3.441 3.090-1.625 3.090 1.625-0.59-3.441 2.5-2.437z"></path>
</svg>
<svg id="icon-plus" width="10" height="10" viewBox="0 0 10 10" x="52" y="26">
<path d="M9.688 3.75h-3.438v-3.438c0-0.173-0.14-0.313-0.313-0.313h-1.875c-0.173 0-0.313 0.14-0.313 0.313v3.438h-3.438c-0.173 0-0.313 0.14-0.313 0.313v1.875c0 0.173 0.14 0.313 0.313 0.313h3.438v3.438c0 0.173 0.14 0.313 0.313 0.313h1.875c0.173 0 0.313-0.14 0.313-0.313v-3.438h3.438c0.173 0 0.313-0.14 0.313-0.313v-1.875c0-0.173-0.14-0.313-0.313-0.313z"></path>
</svg>
<svg id="icon-cross" width="10" height="10" viewBox="0 0 10 10" x="78" y="26">
<path d="M9.909 8.034c-0-0-0-0-0-0l-3.034-3.034 3.034-3.034c0-0 0-0 0-0 0.033-0.033 0.056-0.071 0.071-0.111 0.041-0.111 0.018-0.241-0.072-0.33l-1.433-1.433c-0.089-0.089-0.219-0.113-0.33-0.071-0.041 0.015-0.079 0.039-0.112 0.071 0 0-0 0-0 0l-3.034 3.034-3.034-3.034c-0-0-0-0-0-0-0.033-0.033-0.071-0.056-0.111-0.071-0.111-0.041-0.241-0.018-0.33 0.071l-1.433 1.433c-0.089 0.089-0.113 0.219-0.072 0.33 0.015 0.041 0.039 0.079 0.071 0.111 0 0 0 0 0 0l3.034 3.034-3.034 3.034c-0 0-0 0-0 0-0.033 0.033-0.056 0.071-0.071 0.111-0.041 0.111-0.018 0.241 0.072 0.33l1.433 1.433c0.089 0.089 0.219 0.113 0.33 0.072 0.041-0.015 0.079-0.039 0.111-0.071 0-0 0-0 0-0l3.034-3.034 3.034 3.034c0 0 0 0 0 0 0.033 0.033 0.071 0.056 0.111 0.071 0.111 0.041 0.241 0.018 0.33-0.072l1.433-1.433c0.089-0.089 0.113-0.219 0.072-0.33-0.015-0.041-0.039-0.079-0.071-0.111z"></path>
</svg>
</svg>
